<mxfile host="Electron" modified="2024-03-08T00:02:54.413Z" agent="Mozilla/5.0 (Windows NT 10.0; Win64; x64) AppleWebKit/537.36 (KHTML, like Gecko) draw.io/23.1.5 Chrome/120.0.6099.109 Electron/28.1.0 Safari/537.36" etag="SsP3i8IAUFWy-Vgt98xy" version="23.1.5" type="device">
  <diagram name="Strona-1" id="j5G4Xw4t3O3ZKxLXFJIs">
    <mxGraphModel dx="3772" dy="844" grid="1" gridSize="10" guides="1" tooltips="1" connect="1" arrows="1" fold="1" page="1" pageScale="1" pageWidth="1169" pageHeight="1654" math="0" shadow="0">
      <root>
        <mxCell id="0" />
        <mxCell id="1" parent="0" />
        <mxCell id="8eA3rCGNDCJXCqMqCYDw-1" value="&lt;h1&gt;LASER&lt;/h1&gt;" style="rounded=0;whiteSpace=wrap;html=1;" vertex="1" parent="1">
          <mxGeometry x="260" y="330" width="280" height="100" as="geometry" />
        </mxCell>
        <mxCell id="8eA3rCGNDCJXCqMqCYDw-2" value="&lt;h1&gt;ODBIORNIK&lt;/h1&gt;" style="rounded=0;whiteSpace=wrap;html=1;" vertex="1" parent="1">
          <mxGeometry x="650" y="330" width="290" height="100" as="geometry" />
        </mxCell>
        <mxCell id="8eA3rCGNDCJXCqMqCYDw-3" value="" style="rounded=0;whiteSpace=wrap;html=1;" vertex="1" parent="1">
          <mxGeometry x="-1880" y="260" width="120" height="60" as="geometry" />
        </mxCell>
      </root>
    </mxGraphModel>
  </diagram>
</mxfile>
